<svg width="64" height="64" viewBox="0 0 64 64" fill="none" xmlns="http://www.w3.org/2000/svg">
<path d="M9.87 16.9109C10.016 17.0327 10.1936 17.1107 10.3821 17.1357C10.5706 17.1606 10.7624 17.1317 10.9351 17.0521C11.1078 16.9725 11.2545 16.8456 11.358 16.6861C11.4615 16.5266 11.5177 16.341 11.52 16.1508V14.3509H31.03C47.637 14.3843 55.0832 35.5488 41.9297 45.8609C41.7692 45.9914 41.6528 46.1681 41.5962 46.3671C41.5396 46.566 41.5455 46.7776 41.6133 46.973C41.681 47.1684 41.8072 47.3383 41.9748 47.4596C42.1424 47.5808 42.3432 47.6476 42.55 47.6508L47.93 47.6509C49.017 47.517 49.6565 45.9432 50.3001 45.211C52.7099 41.7018 54.1152 37.6008 54.3641 33.3511C54.6131 29.1014 53.6962 24.8644 51.7125 21.0978C49.7289 17.3313 46.7538 14.1782 43.1087 11.9793C39.4636 9.78036 35.287 8.61911 31.03 8.62097L11.52 8.62091V6.83091C11.5175 6.64083 11.4612 6.45534 11.3577 6.29592C11.2541 6.1365 11.1075 6.00969 10.9349 5.93016C10.7622 5.85064 10.5705 5.82165 10.3821 5.84657C10.1936 5.87149 10.0161 5.94929 9.87 6.07096L4.35 10.731C4.2408 10.8253 4.15307 10.942 4.0927 11.0731C4.03233 11.2041 4.00072 11.3466 4 11.491C3.99969 11.6355 4.03083 11.7783 4.09127 11.9095C4.15171 12.0408 4.24 12.1573 4.35 12.251L9.87 16.9109Z" fill="url(#paint0_linear_470_556)"/>
<path d="M14.96 49.871C14.6819 49.4756 12.3851 49.7095 11.52 49.651V47.851C11.5176 47.6609 11.4613 47.4754 11.3577 47.316C11.2542 47.1566 11.1076 47.0297 10.9349 46.9502C10.7622 46.8707 10.5706 46.8417 10.3821 46.8666C10.1936 46.8915 10.0161 46.9693 9.87 47.091L4.35 51.751C4.24 51.8447 4.1517 51.9612 4.09126 52.0925C4.03082 52.2237 3.99968 52.3665 4 52.511C4.00072 52.6553 4.03233 52.7978 4.0927 52.9289C4.15307 53.06 4.2408 53.1766 4.35 53.271L9.87 57.931C10.0161 58.0525 10.1937 58.1302 10.3821 58.155C10.5705 58.1798 10.7621 58.1508 10.9347 58.0713C11.1073 57.9918 11.2539 57.865 11.3575 57.7057C11.461 57.5463 11.5174 57.3609 11.52 57.1709V55.3811H19.03C19.2354 55.3773 19.4347 55.3107 19.601 55.1902C19.7674 55.0697 19.8928 54.9011 19.9604 54.7071C20.0279 54.5131 20.0344 54.3031 19.9789 54.1053C19.9234 53.9075 19.8086 53.7315 19.65 53.601L14.96 49.871Z" fill="url(#paint1_linear_470_556)"/>
<path d="M54.1303 47.0906C53.9843 46.9688 53.8067 46.8908 53.6182 46.8659C53.4297 46.8409 53.2379 46.8698 53.0652 46.9494C52.8925 47.0289 52.7459 47.1558 52.6423 47.3153C52.5388 47.4748 52.4826 47.6604 52.4803 47.8506V49.6506H32.9703C16.3356 49.6401 8.95276 28.4023 22.0706 18.1406C22.2311 18.0101 22.3475 17.8334 22.4042 17.6344C22.4608 17.4354 22.4548 17.2239 22.3871 17.0284C22.3194 16.833 22.1931 16.6631 22.0255 16.5418C21.8579 16.4205 21.6571 16.3538 21.4503 16.3506H16.0703C14.9794 16.4855 14.3463 18.0576 13.7002 18.7904C3.00643 33.9792 14.3866 55.5488 32.9705 55.3804L52.4802 55.3806V57.1706C52.4829 57.3606 52.5393 57.546 52.6429 57.7053C52.7464 57.8646 52.893 57.9913 53.0656 58.0708C53.2382 58.1503 53.4298 58.1794 53.6182 58.1545C53.8066 58.1297 53.9841 58.0521 54.1302 57.9306L59.6502 53.2706C59.7594 53.1762 59.8472 53.0596 59.9076 52.9285C59.9679 52.7974 59.9995 52.6549 60.0002 52.5106C60.0006 52.3661 59.9694 52.2233 59.909 52.0921C59.8485 51.9608 59.7603 51.8443 59.6502 51.7506L54.1303 47.0906Z" fill="url(#paint2_linear_470_556)"/>
<path d="M49.0297 14.131C49.2055 14.2723 49.4241 14.3498 49.6497 14.351H52.4797V16.151C52.4823 16.341 52.5386 16.5264 52.6422 16.6858C52.7458 16.8451 52.8924 16.9718 53.065 17.0513C53.2376 17.1308 53.4292 17.1599 53.6176 17.135C53.806 17.1102 53.9836 17.0325 54.1297 16.9109L59.6497 12.251C59.7597 12.1573 59.8479 12.0408 59.9084 11.9096C59.9688 11.7783 60 11.6355 59.9997 11.491C59.9989 11.3467 59.9673 11.2042 59.907 11.0731C59.8466 10.942 59.7589 10.8254 59.6497 10.731L54.1297 6.07102C53.9836 5.94933 53.8061 5.87151 53.6176 5.84658C53.4291 5.82165 53.2374 5.85063 53.0648 5.93016C52.8921 6.00969 52.7455 6.13651 52.6419 6.29594C52.5384 6.45537 52.4821 6.64088 52.4797 6.83097V8.62097H44.9597C44.7545 8.62508 44.5554 8.6919 44.3893 8.81245C44.2232 8.93301 44.098 9.10151 44.0305 9.29533C43.963 9.48915 43.9565 9.69898 44.0118 9.89664C44.067 10.0943 44.1815 10.2703 44.3397 10.401L49.0297 14.131Z" fill="url(#paint3_linear_470_556)"/>
<path d="M32 19C29.4288 19 26.9154 19.7624 24.7776 21.1909C22.6398 22.6194 20.9735 24.6497 19.9896 27.0251C19.0056 29.4006 18.7482 32.0144 19.2498 34.5362C19.7514 37.0579 20.9895 39.3743 22.8076 41.1924C24.6257 43.0105 26.9421 44.2486 29.4638 44.7502C31.9856 45.2518 34.5995 44.9944 36.9749 44.0104C39.3503 43.0265 41.3807 41.3603 42.8091 39.2224C44.2376 37.0846 45 34.5712 45 32C44.9967 28.5532 43.626 25.2485 41.1888 22.8112C38.7515 20.374 35.4468 19.0033 32 19ZM34.02 37.18C34.02 37.4452 33.9146 37.6996 33.7271 37.8871C33.5396 38.0746 33.2852 38.18 33.02 38.18C32.7548 38.18 32.5004 38.0746 32.3129 37.8871C32.1254 37.6996 32.02 37.4452 32.02 37.18V33H27.55V37.18C27.55 37.4452 27.4446 37.6996 27.2571 37.8871C27.0696 38.0746 26.8152 38.18 26.55 38.18C26.2848 38.18 26.0304 38.0746 25.8429 37.8871C25.6554 37.6996 25.55 37.4452 25.55 37.18V29.41C25.5503 28.4597 25.9273 27.5483 26.5983 26.8754C27.2694 26.2025 28.1797 25.823 29.13 25.82H30.43C31.3818 25.8209 32.2944 26.1994 32.9675 26.8725C33.6406 27.5456 34.0191 28.4582 34.02 29.41V37.18ZM38.45 37.18C38.45 37.4452 38.3447 37.6996 38.1571 37.8871C37.9696 38.0746 37.7152 38.18 37.45 38.18C37.1848 38.18 36.9304 38.0746 36.7429 37.8871C36.5554 37.6996 36.45 37.4452 36.45 37.18V26.82C36.45 26.5548 36.5554 26.3004 36.7429 26.1129C36.9304 25.9254 37.1848 25.82 37.45 25.82C37.7152 25.82 37.9696 25.9254 38.1571 26.1129C38.3447 26.3004 38.45 26.5548 38.45 26.82V37.18Z" fill="url(#paint4_linear_470_556)"/>
<path d="M30.4298 27.8198H29.1298C28.71 27.823 28.3084 27.9918 28.0125 28.2896C27.7166 28.5874 27.5503 28.99 27.5498 29.4098V30.9998H32.0198V29.4098C32.017 28.989 31.8486 28.5862 31.5511 28.2886C31.2535 27.991 30.8506 27.8226 30.4298 27.8198Z" fill="url(#paint5_linear_470_556)"/>
<defs>
<linearGradient id="paint0_linear_470_556" x1="29.2021" y1="5.83789" x2="29.2021" y2="47.6509" gradientUnits="userSpaceOnUse">
<stop stop-color="#7C3BAF"/>
<stop offset="1" stop-color="#E61C42"/>
</linearGradient>
<linearGradient id="paint1_linear_470_556" x1="12.0081" y1="46.8579" x2="12.0081" y2="58.1636" gradientUnits="userSpaceOnUse">
<stop stop-color="#7C3BAF"/>
<stop offset="1" stop-color="#E61C42"/>
</linearGradient>
<linearGradient id="paint2_linear_470_556" x1="34.7863" y1="16.3506" x2="34.7863" y2="58.1632" gradientUnits="userSpaceOnUse">
<stop stop-color="#7C3BAF"/>
<stop offset="1" stop-color="#E61C42"/>
</linearGradient>
<linearGradient id="paint3_linear_470_556" x1="51.9871" y1="5.83789" x2="51.9871" y2="17.1436" gradientUnits="userSpaceOnUse">
<stop stop-color="#7C3BAF"/>
<stop offset="1" stop-color="#E61C42"/>
</linearGradient>
<linearGradient id="paint4_linear_470_556" x1="32" y1="19" x2="32" y2="45" gradientUnits="userSpaceOnUse">
<stop stop-color="#7C3BAF"/>
<stop offset="1" stop-color="#E61C42"/>
</linearGradient>
<linearGradient id="paint5_linear_470_556" x1="29.7848" y1="27.8198" x2="29.7848" y2="30.9998" gradientUnits="userSpaceOnUse">
<stop stop-color="#7C3BAF"/>
<stop offset="1" stop-color="#E61C42"/>
</linearGradient>
</defs>
</svg>
